<?xml version="1.0" encoding="UTF-8"?>
<svg width="530px" height="135px" viewBox="0 0 409 104" version="1.1" xmlns="http://www.w3.org/2000/svg" xmlns:xlink="http://www.w3.org/1999/xlink">
    <title>Group 53</title>
    <defs>
        <polygon id="path-1" points="-1.42108547e-14 0 19.563 0 19.563 18.1909 -1.42108547e-14 18.1909"></polygon>
        <polygon id="path-3" points="0 0 22.002 0 22.002 18.1907 0 18.1907"></polygon>
        <polygon id="path-5" points="0 0 19.563 0 19.563 18.1909 0 18.1909"></polygon>
        <polygon id="path-7" points="0 0 19.563 0 19.563 18.1909 0 18.1909"></polygon>
    </defs>
    <g id="Pages" stroke="none" stroke-width="1" fill="none" fill-rule="evenodd">
        <g id="Group-53">
            <path d="M56.08,19.0058924 C61.5,18.7758924 73.19,19.0058924 73.19,19.0058924 L76.93,0.00589235218 C76.93,0.00589235218 63.69,0.0758923522 57.81,0.00589235218 C31.95,-0.304107648 19.28,11.6358924 15.04,31.5558924 L0,102.845892 L22.09,102.845892 L31.52,57.2758924 L52.92,57.2758924 L55.59,41.3958924 L34.92,41.3958924 L37.29,31.0858924 C40.25,22.2958924 46.68,19.3958924 56.08,19.0058924" id="Fill-1" fill="#E0007C"></path>
            <path d="M121.43,45.7458924 C124.98,29.6558924 133.31,26.0758924 150.14,26.0758924 L162.21,26.0758924 L163.31,38.4158924 L152.67,38.4158924 C144.25,38.4158924 140.42,42.8858924 138.67,50.9358924 L133.62,73.4658924 L115.26,73.4658924 L121.43,45.7458924 Z" id="Fill-3" fill="#E0007C"></path>
            <path d="M184.28,53.3358924 C184.28,53.8758924 184.47,54.7758924 184.94,54.7758924 C185.41,54.7758924 185.87,53.8758924 186.06,53.4258924 L198.4,30.5458924 C199.53,28.4858924 201.58,25.5458924 209.63,25.5458924 C217.68,25.5458924 219.17,28.4958924 219.36,30.5458924 L221.6,53.4358924 C221.6,53.8858924 221.7,54.7758924 222.17,54.7758924 C222.64,54.7758924 223.1,53.8858924 223.38,53.3458924 L236.92,26.0658924 L255.07,26.0658924 L235.24,64.5058924 C232.53,69.8758924 229.54,73.9858924 220.37,73.9858924 C211.2,73.9858924 209.05,70.5058924 208.77,67.1058924 L206.92,46.4558924 C206.82,45.7358924 206.82,45.0258924 206.45,45.0258924 C206.08,45.0258924 205.8,45.7358924 205.45,46.4558924 L194.23,67.1058924 C192.45,70.5058924 189.46,73.9958924 180.39,73.9958924 C171.32,73.9958924 169.44,69.8858924 169.07,64.5158924 L166.26,26.0758924 L182.92,26.0758924 L184.28,53.3358924 Z" id="Fill-5" fill="#E0007C"></path>
            <path d="M271.67,54.8458924 C269.8,54.8458924 267.93,55.5658924 267.46,57.7158924 C267.352,58.2128924 267.289,58.7178924 267.27,59.2258924 C267.221,59.9398924 267.486,60.6398924 267.995,61.1428924 C268.504,61.6458924 269.207,61.9028924 269.92,61.8458924 L279.37,61.8458924 C282.18,61.8458924 283.2,60.9458924 283.86,58.2658924 L284.7,54.8658924 L271.67,54.8458924 Z M291.59,26.0558924 C301.5,26.0558924 306.18,31.1558924 306.18,38.4858924 C306.191,39.7158924 306.067,40.9428924 305.81,42.1458924 L301.04,63.6058924 C299.64,69.8658924 295.99,73.4458924 288.51,73.4458924 L259.7,73.4458924 C252.12,73.4458924 248.57,68.8858924 248.57,61.9158924 C248.617,59.8448924 248.835,57.7808924 249.22,55.7458924 C251.22,46.8058924 254.22,43.7458924 264.46,43.7458924 L287.1,43.7458924 L287.29,42.8458924 C287.362,42.4638924 287.392,42.0748924 287.38,41.6858924 C287.38,39.3658924 285.7,38.1958924 282.7,38.1958924 L253.92,38.1958924 L259.63,26.0358924 L291.59,26.0558924 Z" id="Fill-7" fill="#E0007C"></path>
            <path d="M310.2,45.7258924 C313.76,29.6358924 322.08,26.0558924 338.92,26.0558924 L351.98,26.0558924 L348.27,38.3858924 L341.44,38.3858924 C333.03,38.3858924 329.19,42.8658924 327.44,50.9058924 L322.39,73.4358924 L304.04,73.4358924 L310.2,45.7258924 Z" id="Fill-9" fill="#E0007C"></path>
            <path d="M384.28,38.5658924 L375.86,38.5658924 C369.4,38.5658924 366.86,45.1858924 365.95,49.7458924 C365.541,51.5328924 365.35,53.3628924 365.38,55.1958924 C365.38,58.5058924 366.7,60.9158924 371.28,60.9158924 L374.65,60.9158924 C378.39,60.9158924 379.51,60.0158924 380.35,56.4458924 L384.28,38.5658924 Z M364.55,73.4358924 C351.83,73.4358924 346.49,66.2858924 346.49,56.0958924 C346.51,53.3618924 346.791,50.6358924 347.33,47.9558924 C350.33,33.6558924 355.47,26.0458924 373.24,26.0458924 L387.08,26.0458924 L390.45,10.8458924 L408.78,10.8458924 L397.09,63.5958924 C395.69,69.8558924 392.09,73.4258924 384.56,73.4258924 L364.55,73.4358924 Z" id="Fill-11" fill="#E0007C"></path>
            <path d="M107.69,49.3758924 L88.29,36.8458924 L86.75,45.3558924 L73.55,36.8458924 L69,61.8458924 L85.29,53.3358924 L83.74,61.8458924 L107.69,49.3758924 Z M116.53,42.4458924 C116.548,45.5108924 116.236,48.5678924 115.6,51.5658924 C111.2,71.2258924 104.09,74.0058924 82.6,74.0058924 C65.67,74.0058924 57.6,69.7158924 57.6,57.2958924 C57.575,54.1718924 57.887,51.0538924 58.53,47.9958924 C62.83,28.3258924 69.94,25.5558924 91.45,25.5458924 C108.39,25.5458924 116.53,29.9258924 116.53,42.4458924 L116.53,42.4458924 Z" id="Fill-13" fill="#E0007C"></path>
            <path d="M67.3647,93.5975924 C69.2697,93.5975924 69.9817,93.0895924 70.3627,91.3365924 C70.4647,90.8545924 70.5147,90.3705924 70.5147,90.0915924 C70.5147,89.0505924 69.9057,88.6185924 68.4067,88.6185924 L64.3917,88.6185924 C63.5027,88.6185924 63.1477,88.9225924 62.9447,89.8125924 L62.1567,93.5975924 L67.3647,93.5975924 Z M55.6017,102.845592 L58.8027,87.8055924 C59.2097,85.9005924 60.1747,85.0615924 62.0797,85.0615924 L70.7687,85.0615924 C74.0207,85.0615924 75.2157,86.9415924 75.2157,89.6095924 C75.2157,90.0915924 75.1647,90.8545924 75.0367,91.5905924 C74.4277,95.1725924 73.1567,97.1545924 68.9657,97.1545924 L61.3947,97.1545924 L60.1747,102.845592 L55.6017,102.845592 Z" id="Fill-15" fill="#000000"></path>
            <path d="M92.6665,88.5165924 L83.5205,88.5165924 C82.6305,88.5165924 82.2755,88.8215924 82.0725,89.7105924 L81.5635,92.1745924 L91.6755,92.1745924 L90.9645,95.4775924 L80.8525,95.4775924 L80.2685,98.1965924 C80.2425,98.3735924 80.2175,98.5515924 80.2175,98.6785924 C80.2175,99.2125924 80.4975,99.3905924 81.2085,99.3905924 L90.4565,99.3905924 L89.7195,102.845592 L77.3975,102.845592 C75.9995,102.845592 75.2125,102.083592 75.2125,100.864592 C75.2125,100.635592 75.2375,100.380592 75.2885,100.126592 L77.9055,87.8055924 C78.3125,85.9005924 79.2775,85.0615924 81.1825,85.0615924 L93.4035,85.0615924 L92.6665,88.5165924 Z" id="Fill-17" fill="#000000"></path>
            <g id="Group-21" transform="translate(93.070100, 84.857892)">
                <mask id="mask-2" fill="white">
                    <use xlink:href="#path-1"></use>
                </mask>
                <g id="Clip-20"></g>
                <path d="M4.675,11.687 C4.675,13.872 5.793,14.634 8.587,14.634 C12.297,14.634 13.669,13.288 14.558,9.096 C14.786,8.08 14.888,7.241 14.888,6.53 C14.888,4.345 13.745,3.557 10.95,3.557 C7.241,3.557 5.894,4.904 5.005,9.096 C4.777,10.137 4.675,10.976 4.675,11.687 M19.563,6.073 C19.563,7.139 19.512,8.156 19.207,9.604 C17.632,17.022 15.091,18.191 8.105,18.191 C2.49,18.191 -1.42108547e-14,16.514 -1.42108547e-14,12.119 C-1.42108547e-14,11.052 0.051,10.036 0.356,8.587 C1.931,1.195 4.471,0 11.458,0 C17.073,0 19.563,1.677 19.563,6.073" id="Fill-19" fill="#000000" mask="url(#mask-2)"></path>
            </g>
            <path d="M124.4434,93.5975924 C126.3484,93.5975924 127.0604,93.0895924 127.4414,91.3365924 C127.5434,90.8545924 127.5934,90.3705924 127.5934,90.0915924 C127.5934,89.0505924 126.9844,88.6185924 125.4854,88.6185924 L121.4704,88.6185924 C120.5814,88.6185924 120.2264,88.9225924 120.0234,89.8125924 L119.2354,93.5975924 L124.4434,93.5975924 Z M112.6804,102.845592 L115.8814,87.8055924 C116.2884,85.9005924 117.2534,85.0615924 119.1594,85.0615924 L127.8474,85.0615924 C131.0994,85.0615924 132.2944,86.9415924 132.2944,89.6095924 C132.2944,90.0915924 132.2434,90.8545924 132.1154,91.5905924 C131.5064,95.1725924 130.2354,97.1545924 126.0444,97.1545924 L118.4734,97.1545924 L117.2534,102.845592 L112.6804,102.845592 Z" id="Fill-22" fill="#000000"></path>
            <path d="M134.4761,102.845692 C133.0791,102.845692 132.2911,102.083692 132.2911,100.864692 C132.2911,100.635692 132.3161,100.380692 132.3671,100.126692 L135.5681,85.0616924 L140.1421,85.0616924 L137.3721,98.0946924 C137.3471,98.2726924 137.3211,98.4496924 137.3211,98.5766924 C137.3211,99.1116924 137.6011,99.2886924 138.3121,99.2886924 L147.4581,99.2886924 L146.6961,102.845692 L134.4761,102.845692 Z" id="Fill-24" fill="#000000"></path>
            <path d="M166.0532,88.5165924 L156.9072,88.5165924 C156.0172,88.5165924 155.6622,88.8215924 155.4592,89.7105924 L154.9502,92.1745924 L165.0622,92.1745924 L164.3512,95.4775924 L154.2392,95.4775924 L153.6552,98.1965924 C153.6292,98.3735924 153.6042,98.5515924 153.6042,98.6785924 C153.6042,99.2125924 153.8842,99.3905924 154.5952,99.3905924 L163.8432,99.3905924 L163.1062,102.845592 L150.7842,102.845592 C149.3862,102.845592 148.5992,102.083592 148.5992,100.864592 C148.5992,100.635592 148.6242,100.380592 148.6752,100.126592 L151.2922,87.8055924 C151.6992,85.9005924 152.6642,85.0615924 154.5692,85.0615924 L166.7902,85.0615924 L166.0532,88.5165924 Z" id="Fill-26" fill="#000000"></path>
            <polygon id="Fill-28" fill="#000000" points="177.0249 101.625892 178.1429 96.3158924 172.8069 96.3158924 173.3919 93.5718924 178.7269 93.5718924 179.8449 88.2628924 182.7159 88.2628924 181.5979 93.5718924 186.9329 93.5718924 186.3489 96.3158924 181.0129 96.3158924 179.8959 101.625892"></polygon>
            <polygon id="Fill-30" fill="#000000" points="198.7681 102.845692 201.7911 88.6176924 195.1861 88.6176924 195.9481 85.0616924 213.7321 85.0616924 212.9701 88.6176924 206.3641 88.6176924 203.3411 102.845692"></polygon>
            <path d="M229.3027,88.5165924 L220.1567,88.5165924 C219.2677,88.5165924 218.9117,88.8215924 218.7087,89.7105924 L218.1997,92.1745924 L228.3127,92.1745924 L227.6007,95.4775924 L217.4897,95.4775924 L216.9057,98.1965924 C216.8797,98.3735924 216.8547,98.5515924 216.8547,98.6785924 C216.8547,99.2125924 217.1337,99.3905924 217.8447,99.3905924 L227.0927,99.3905924 L226.3567,102.845592 L214.0337,102.845592 C212.6367,102.845592 211.8497,102.083592 211.8497,100.864592 C211.8497,100.635592 211.8747,100.380592 211.9257,100.126592 L214.5417,87.8055924 C214.9487,85.9005924 215.9137,85.0615924 217.8197,85.0615924 L230.0397,85.0615924 L229.3027,88.5165924 Z" id="Fill-32" fill="#000000"></path>
            <path d="M236.2871,102.845692 C231.5611,102.845692 229.7071,100.457692 229.7071,96.6976924 C229.7071,95.7066924 229.8081,94.6146924 230.0621,93.4456924 C231.2311,87.8566924 233.3401,85.0616924 239.5641,85.0616924 L246.9071,85.0616924 L246.1441,88.6176924 L241.0631,88.6176924 C236.9981,88.6176924 235.6271,89.6346924 234.7121,93.9536924 C234.5091,94.9446924 234.3821,95.7576924 234.3821,96.4176924 C234.3821,98.6786924 235.6781,99.2886924 238.8031,99.2886924 L244.1381,99.2886924 L243.3751,102.845692 L236.2871,102.845692 Z" id="Fill-34" fill="#000000"></path>
            <polygon id="Fill-36" fill="#000000" points="262.3008 102.845692 257.7278 102.845692 259.3028 95.4266924 251.5028 95.4266924 249.9278 102.845692 245.3548 102.845692 249.1408 85.0616924 253.7128 85.0616924 252.2658 91.8696924 260.0648 91.8696924 261.5128 85.0616924 266.0858 85.0616924"></polygon>
            <g id="Group-40" transform="translate(265.092200, 84.858092)">
                <mask id="mask-4" fill="white">
                    <use xlink:href="#path-3"></use>
                </mask>
                <g id="Clip-39"></g>
                <path d="M18.775,15.345 C18.47,16.819 17.53,18.191 14.938,18.191 C13.719,18.191 12.5,18.013 11.89,16.565 L7.444,6.123 C7.292,5.819 7.165,5.691 7.038,5.691 C6.936,5.691 6.732,5.741 6.63,6.199 L4.116,17.988 L0,17.988 L3.226,2.795 C3.684,0.61 5.31,0 7.19,0 C8.46,0 9.629,0.33 10.137,1.525 L14.633,12.068 C14.71,12.245 14.76,12.5 14.989,12.5 C15.269,12.5 15.345,12.195 15.371,12.068 L17.885,0.203 L22.002,0.203 L18.775,15.345 Z" id="Fill-38" fill="#000000" mask="url(#mask-4)"></path>
            </g>
            <g id="Group-43" transform="translate(287.166800, 84.857892)">
                <mask id="mask-6" fill="white">
                    <use xlink:href="#path-5"></use>
                </mask>
                <g id="Clip-42"></g>
                <path d="M4.675,11.687 C4.675,13.872 5.792,14.634 8.587,14.634 C12.296,14.634 13.668,13.288 14.558,9.096 C14.786,8.08 14.888,7.241 14.888,6.53 C14.888,4.345 13.744,3.557 10.95,3.557 C7.24,3.557 5.895,4.904 5.005,9.096 C4.777,10.137 4.675,10.976 4.675,11.687 M19.563,6.073 C19.563,7.139 19.512,8.156 19.207,9.604 C17.632,17.022 15.091,18.191 8.105,18.191 C2.489,18.191 0,16.514 0,12.119 C0,11.052 0.051,10.036 0.356,8.587 C1.931,1.195 4.472,0 11.458,0 C17.072,0 19.563,1.677 19.563,6.073" id="Fill-41" fill="#000000" mask="url(#mask-6)"></path>
            </g>
            <path d="M309.4697,102.845692 C308.0727,102.845692 307.2847,102.083692 307.2847,100.864692 C307.2847,100.635692 307.3107,100.380692 307.3617,100.126692 L310.5627,85.0616924 L315.1347,85.0616924 L312.3657,98.0946924 C312.3407,98.2726924 312.3157,98.4496924 312.3157,98.5766924 C312.3157,99.1116924 312.5947,99.2886924 313.3057,99.2886924 L322.4517,99.2886924 L321.6897,102.845692 L309.4697,102.845692 Z" id="Fill-44" fill="#000000"></path>
            <g id="Group-48" transform="translate(323.389500, 84.857892)">
                <mask id="mask-8" fill="white">
                    <use xlink:href="#path-7"></use>
                </mask>
                <g id="Clip-47"></g>
                <path d="M4.675,11.687 C4.675,13.872 5.792,14.634 8.587,14.634 C12.296,14.634 13.668,13.288 14.558,9.096 C14.786,8.08 14.888,7.241 14.888,6.53 C14.888,4.345 13.744,3.557 10.95,3.557 C7.24,3.557 5.895,4.904 5.005,9.096 C4.777,10.137 4.675,10.976 4.675,11.687 M19.563,6.073 C19.563,7.139 19.512,8.156 19.207,9.604 C17.632,17.022 15.091,18.191 8.105,18.191 C2.489,18.191 0,16.514 0,12.119 C0,11.052 0.051,10.036 0.356,8.587 C1.931,1.195 4.472,0 11.458,0 C17.072,0 19.563,1.677 19.563,6.073" id="Fill-46" fill="#000000" mask="url(#mask-8)"></path>
            </g>
            <path d="M354.8906,88.6180924 C351.3326,88.6180924 349.9366,89.7620924 349.0466,93.9540924 C348.8436,94.9440924 348.7426,95.7580924 348.7426,96.4180924 C348.7426,98.6280924 349.9116,99.2890924 352.6286,99.2890924 L354.5596,99.2890924 C355.4496,99.2890924 355.8296,98.9840924 356.0076,98.0950924 L356.9226,93.8010924 L361.4956,93.8010924 L360.1496,100.127092 C359.7436,102.033092 358.7776,102.846092 356.8716,102.846092 L350.6216,102.846092 C345.8966,102.846092 344.0676,100.458092 344.0676,96.6970924 C344.0676,95.7070924 344.1686,94.6140924 344.3976,93.4450924 C345.4906,87.8310924 347.4206,85.0610924 353.8996,85.0610924 L362.9446,85.0610924 L362.1816,88.6180924 L354.8906,88.6180924 Z" id="Fill-49" fill="#000000"></path>
            <polygon id="Fill-51" fill="#000000" points="378.3115 85.0614924 383.4445 85.0614924 373.1545 97.6634924 372.0375 102.845492 367.4895 102.845492 368.6065 97.6634924 363.6775 85.0614924 368.3015 85.0614924 371.5025 93.5724924"></polygon>
        </g>
    </g>
</svg>